<svg width="32" height="32" viewBox="0 0 32 32" fill="none" xmlns="http://www.w3.org/2000/svg">
  <rect width="32" height="32" rx="8" fill="#0066CC"/>
  <path d="M8 24V8H12.4C14.2667 8 15.7333 8.48 16.8 9.44C17.8667 10.4 18.4 11.7333 18.4 13.44C18.4 14.6133 18.0933 15.6267 17.48 16.48C16.8667 17.3333 16.0133 17.9467 14.92 18.32L18.8 24H15.28L12.12 19.2H11.52V24H8ZM11.52 16.68H12.32C13.12 16.68 13.7333 16.4667 14.16 16.04C14.5867 15.6133 14.8 15.04 14.8 14.32C14.8 13.6 14.5867 13.0267 14.16 12.6C13.7333 12.1733 13.12 11.96 12.32 11.96H11.52V16.68Z" fill="white"/>
</svg>
